HIERARCHY
ROOT hip
{
	OFFSET 0.000000 0.000000 0.000000 
	CHANNELS 6 Xposition Yposition Zposition Zrotation Xrotation Yrotation
	JOINT abdomen
	{
		OFFSET 0.000000 3.402643 0.000000 
		CHANNELS 3 Zrotation Xrotation Yrotation
		JOINT chest
		{
			OFFSET 0.000000 8.438565 -0.680529 
			CHANNELS 3 Zrotation Xrotation Yrotation
			JOINT neck
			{
				OFFSET 0.000000 10.207942 -0.272212 
				CHANNELS 3 Zrotation Xrotation Yrotation
				JOINT head
				{
					OFFSET 0.000000 3.130431 0.000000 
					CHANNELS 3 Zrotation Xrotation Yrotation
					End Site
					{
						OFFSET 0.000000 3.130435 0.000000 
					}
				}
			}
			JOINT lCollar
			{
				OFFSET 3.470700 6.669187 -0.816635 
				CHANNELS 3 Zrotation Xrotation Yrotation
				JOINT lShldr
				{
					OFFSET 3.198488 0.000000 0.000000 
					CHANNELS 3 Zrotation Xrotation Yrotation
					JOINT lForeArm
					{
						OFFSET 10.139888 0.000000 0.000000 
						CHANNELS 3 Zrotation Xrotation Yrotation
						JOINT lHand
						{
							OFFSET 8.370511 0.000000 0.000000 
							CHANNELS 3 Zrotation Xrotation Yrotation
							End Site
							{
								OFFSET 4.083176 0.000000 0.000000 
							}
						}
					}
				}
			}
			JOINT rCollar
			{
				OFFSET -3.470700 6.669187 -0.816635 
				CHANNELS 3 Zrotation Xrotation Yrotation
				JOINT rShldr
				{
					OFFSET -3.198488 0.000000 0.000000 
					CHANNELS 3 Zrotation Xrotation Yrotation
					JOINT rForeArm
					{
						OFFSET -10.139888 0.000000 0.000000 
						CHANNELS 3 Zrotation Xrotation Yrotation
						JOINT rHand
						{
							OFFSET -8.370511 0.000000 0.000000 
							CHANNELS 3 Zrotation Xrotation Yrotation
							End Site
							{
								OFFSET -4.083176 0.000000 0.000000 
							}
						}
					}
				}
			}
		}
	}
	JOINT lThigh
	{
		OFFSET 5.308129 -1.633274 1.361059 
		CHANNELS 3 Zrotation Xrotation Yrotation
		JOINT lShin
		{
			OFFSET -2.041588 -20.007561 0.000000 
			CHANNELS 3 Zrotation Xrotation Yrotation
			JOINT lFoot
			{
				OFFSET 0.000000 -19.190928 -1.224953 
				CHANNELS 3 Zrotation Xrotation Yrotation
				End Site
				{
					OFFSET 0.000000 -2.449906 4.627600 
				}
			}
		}
	}
	JOINT rThigh
	{
		OFFSET -5.308129 -1.633274 1.361059 
		CHANNELS 3 Zrotation Xrotation Yrotation
		JOINT rShin
		{
			OFFSET 2.041588 -20.007561 0.000000 
			CHANNELS 3 Zrotation Xrotation Yrotation
			JOINT rFoot
			{
				OFFSET 0.000000 -19.190928 -1.224953 
				CHANNELS 3 Zrotation Xrotation Yrotation
				End Site
				{
					OFFSET 0.000000 -2.449906 4.627600 
				}
			}
		}
	}
}
MOTION
Frames: 8
Frame Time: 0.033333
0.329367 48.025787 0.179289 -0.068359 0.107406 -0.429560 0.185547 0.029296 1.005764 -0.341809 -0.478506 0.163161 -0.791015 0.048820 0.098195 0.947282 -0.331984 0.171505 -5.828010 -0.374525 0.330324 -70.754074 15.697989 16.633497 -11.738274 6.910279 -30.208658 8.567571 -0.861070 -4.098665 5.794174 0.832613 -1.992044 70.053940 16.308498 -12.890327 13.614300 6.575086 26.718393 -7.681175 1.180210 5.470719 4.383402 -7.574703 -0.822061 -3.170511 15.404378 -0.220582 -1.234462 -8.465640 3.052484 -4.720111 -7.841587 0.131386 2.397765 15.376904 0.182347 2.137417 -8.254297 -1.683786 
0.658735 48.037937 0.066910 -0.126954 0.214824 -0.849133 0.380859 0.068360 2.011262 -0.673922 -0.956966 0.330541 -1.572268 0.107375 0.208025 1.894654 -0.653940 0.363752 -5.979778 -0.484748 -1.340400 -68.893044 15.621286 21.994898 -13.577845 10.566423 -39.347454 10.982195 -1.837119 -5.668709 5.919391 1.935418 -1.963508 67.015144 17.187910 -14.806180 18.109562 10.543109 33.393238 -10.059757 1.453324 7.942076 5.119580 -7.619539 -2.350145 -3.506554 15.480654 -0.257791 -1.248827 -8.756379 5.473489 -5.057885 -8.155980 1.461801 1.873560 15.370462 -0.059245 3.380937 -8.206220 -1.957865 
0.988104 48.050095 -0.045468 -0.195315 0.322249 -1.268433 0.576173 0.107415 3.026263 -1.006170 -1.425558 0.482779 -2.353523 0.165872 0.318917 2.842209 -0.975363 0.556234 -6.142243 -0.575454 -3.010317 -67.240486 15.482553 26.592846 -14.330318 14.327244 -46.985264 13.298518 -3.150170 -7.917302 6.034325 3.038656 -1.945418 64.205719 18.188671 -15.705810 21.468407 14.884728 38.307896 -12.868056 0.702977 11.121325 5.880431 -7.661388 -3.777768 -3.412362 15.333498 -0.494597 -1.841873 -8.831316 7.875469 -5.388529 -8.473815 2.477284 1.245621 15.356165 -0.022331 4.633753 -8.127989 -2.145186 
1.317471 48.062241 -0.157846 -0.253913 0.429686 -1.687593 0.771487 0.146470 4.031363 -1.338637 -1.903775 0.638883 -3.134789 0.224265 0.432205 3.790033 -1.295988 0.769440 -6.306018 -0.667428 -4.679480 -65.720070 15.229185 30.699135 -14.133111 18.102230 -53.723850 15.535186 -4.828077 -10.516590 6.147827 4.142023 -1.918281 61.388298 19.176781 -15.893523 24.025738 19.606682 42.288528 -16.316164 -0.974322 14.420345 6.664984 -7.934003 -5.202088 -3.605010 15.313887 -0.670028 -2.114142 -8.749586 10.314366 -5.718315 -8.778690 3.483308 0.688544 15.339597 0.110811 5.798796 -8.045609 -2.514139 
1.646838 48.074394 -0.270224 -0.322281 0.546855 -2.106301 0.966802 0.185519 5.035931 -1.671354 -2.372041 0.780415 -3.916059 0.272794 0.546018 4.738215 -1.615556 0.983499 -6.488742 -0.738245 -6.347687 -64.168221 14.924256 34.419609 -13.124907 21.869179 -60.018196 17.803450 -6.947273 -13.276332 6.270350 5.253913 -1.891779 58.512527 19.984165 -15.453555 25.844948 24.671204 45.693634 -20.385658 -3.517180 17.528307 7.407419 -7.808291 -6.716030 -3.715862 15.282980 -0.808781 -2.247954 -9.089851 12.772216 -6.058012 -9.091259 4.103177 -0.012777 15.323483 0.519345 7.073174 -8.034729 -2.697359 
1.976206 48.086544 -0.382602 -0.380884 0.654281 -2.525013 1.152353 0.224567 6.050170 -2.004432 -2.849818 0.925352 -4.697339 0.330915 0.661157 5.686843 -1.933802 1.218892 -6.681105 -0.800920 -8.014926 -62.507786 14.552288 37.912178 -11.271914 25.642588 -66.398033 20.224407 -9.477689 -15.842292 6.382924 6.357468 -1.875672 55.585754 20.471703 -14.466817 26.931236 30.061991 48.667595 -25.104067 -6.886108 20.144518 8.145304 -7.755792 -8.232535 -3.928521 15.288337 -0.883640 -2.416617 -9.443773 15.155389 -6.402300 -9.400116 5.446278 -0.253034 15.297578 0.155089 8.016220 -8.032937 -2.962897 
2.305574 48.098694 -0.494981 -0.449258 0.761697 -2.943330 1.347670 0.263597 7.054583 -2.337905 -3.317554 1.055639 -5.478635 0.388835 0.778550 6.635999 -2.250462 1.454285 -6.884066 -0.860206 -9.690866 -60.734978 14.106555 41.079285 -8.509000 29.301651 -72.754707 22.784136 -12.558260 -18.325388 6.493549 7.460097 -1.850397 52.524673 20.563122 -12.968183 27.434155 35.849297 51.631210 -30.668318 -10.909281 21.752069 8.898341 -7.802499 -9.635424 -3.854020 15.085857 -1.176422 -2.699840 -9.384542 17.627409 -6.754650 -9.722196 6.442189 -0.829885 15.287331 0.242332 9.269548 -8.083155 -3.305291 
2.634940 48.110847 -0.607359 -0.507871 0.869084 -3.361438 1.542991 0.302623 8.058255 -2.671878 -3.794712 1.189775 -6.259956 0.446539 0.898591 7.585771 -2.565273 1.709988 -7.084181 -0.900506 -11.356221 -58.724590 13.675553 44.010021 -4.756135 32.790703 -79.497887 25.594528 -16.192926 -20.523775 6.603277 8.564977 -1.825706 49.163078 20.432249 -10.804336 27.226568 42.082390 55.017616 -37.462490 -15.633066 21.728109 9.655439 -7.830706 -11.220081 -4.154608 15.170517 -1.131179 -2.826990 -9.682626 19.967300 -7.087775 -10.034050 7.038329 -1.824614 15.273478 0.831914 10.767794 -8.058295 -3.562425 
